<svg xmlns="http://www.w3.org/2000/svg" version="1.1" xmlns:xlink="http://www.w3.org/1999/xlink" width="512" height="512" x="0" y="0" viewBox="0 0 36 36" style="enable-background:new 0 0 512 512" xml:space="preserve" class=""><g><path fill="#efefef" d="M27.623 4.167c-6.917 0-11.667-3.583-15-3.583S2.29 2.5 2.29 17.833s9.417 17.583 13.083 17.583c17.167.001 24.5-31.249 12.25-31.249z" opacity="1" data-original="#efefef" class=""></path><g fill="#a4afc1"><path d="m25.906 5.62.707-.707 1.414 1.414-.707.707zM29.97 9.686l.707-.707 1.414 1.414-.707.707zM29.791 6.323l1.414-1.414.707.707-1.414 1.414z" fill="#a4afc1" opacity="1" data-original="#a4afc1" class=""></path></g><path fill="#efefef" d="M23.25 17.5v1.75a7 7 0 0 1-7 7h-2.5a7 7 0 0 1-7-7V17.5l2.083-4.917 11-.458z" opacity="1" data-original="#efefef" class=""></path><path fill="#5b91ff" d="M18.868 6.998a8.858 8.858 0 0 1-6.417 2.752h-1.305c-1.861 0-3.494 1.276-3.897 3.093A21.568 21.568 0 0 0 6.75 17.5l2.054-2.183a3.557 3.557 0 0 1 4.393-.628 3.554 3.554 0 0 0 3.606 0 3.557 3.557 0 0 1 4.393.628L23.25 17.5c0-5.857-1.707-8.402-2.893-10.283a.983.983 0 0 0-1.489-.219z" opacity="1" data-original="#2fdf84" class=""></path><path fill="#ff5b5b" d="M9.499 12.843c.403-1.817 2.036-3.093 3.897-3.093h-2.25c-1.861 0-3.494 1.276-3.897 3.093A21.568 21.568 0 0 0 6.75 17.5l2.054-2.183c.105-.111.221-.206.336-.301.091-.805.218-1.535.359-2.173z" opacity="1" data-original="#00b871" class=""></path><path fill="#d5dbe1" d="M16 26.25h-2.25c-3.87 0-7-3.13-7-7V17.5l2.05-2.18c.43-.46.96-.78 1.53-.95L9 17.5v1.75c0 3.87 3.13 7 7 7z" opacity="1" data-original="#d5dbe1" class=""></path><path d="M23.25 18.25a.748.748 0 0 1-.546-.236l-2.054-2.183a2.794 2.794 0 0 0-3.466-.495 4.315 4.315 0 0 1-4.367 0 2.796 2.796 0 0 0-3.467.495l-2.054 2.183a.756.756 0 0 1-.823.184A.752.752 0 0 1 6 17.5c0-1.651.174-3.272.518-4.818C6.99 10.548 8.937 9 11.147 9h1.305c2.209 0 4.35-.918 5.873-2.519l.048-.047a1.741 1.741 0 0 1 1.395-.417c.504.073.95.364 1.224.8l.093.146C22.315 8.911 24 11.577 24 17.5a.75.75 0 0 1-.75.75zm-4.638-4.808c1.152 0 2.288.467 3.129 1.361l.686.729c-.319-4.14-1.624-6.205-2.611-7.767l-.094-.148a.241.241 0 0 0-.17-.115.24.24 0 0 0-.172.045 9.65 9.65 0 0 1-6.929 2.953h-1.305c-1.512 0-2.843 1.054-3.165 2.506a20.07 20.07 0 0 0-.391 2.506l.667-.708a4.283 4.283 0 0 1 5.319-.761 2.81 2.81 0 0 0 2.846 0 4.322 4.322 0 0 1 2.19-.601z" fill="#000000" opacity="1" data-original="#000000" class=""></path><circle cx="12" cy="19" r="1" fill="#000000" opacity="1" data-original="#000000" class=""></circle><circle cx="18" cy="19" r="1" fill="#000000" opacity="1" data-original="#000000" class=""></circle><path d="M15.25 27h-.5C9.925 27 6 23.075 6 18.25v-.75h1.5v.75c0 3.998 3.252 7.25 7.25 7.25h.5c.528 0 1.046-.055 1.54-.162l.32 1.465a8.716 8.716 0 0 1-1.86.197zM21 24c-1.103 0-2-.897-2-2s.897-2 2-2 2 .897 2 2-.897 2-2 2zm0-2.5a.5.5 0 1 0 .002 1.002A.5.5 0 0 0 21 21.5zM21 30c-1.103 0-2-.897-2-2s.897-2 2-2 2 .897 2 2-.897 2-2 2zm0-2.5a.5.5 0 1 0 .002 1.002A.5.5 0 0 0 21 27.5z" fill="#000000" opacity="1" data-original="#000000" class=""></path><path d="m20.602 26.103 8.248-4.997.777 1.282-8.248 4.998z" fill="#000000" opacity="1" data-original="#000000" class=""></path><path d="m20.6 23.89.777-1.282 8.248 4.997-.777 1.283z" fill="#000000" opacity="1" data-original="#000000" class=""></path></g></svg>