<svg xmlns="http://www.w3.org/2000/svg" version="1.1" xmlns:xlink="http://www.w3.org/1999/xlink" width="512" height="512" x="0" y="0" viewBox="0 0 36 36" style="enable-background:new 0 0 512 512" xml:space="preserve" class=""><g><path fill="#efefef" d="M4.167 8.377c0 6.917-3.583 11.667-3.583 15S2.5 33.71 17.833 33.71s17.583-9.417 17.583-13.083C35.417 3.46 4.167-3.873 4.167 8.377z" opacity="1" data-original="#efefef" class=""></path><path fill="#a4afc1" d="M29.5 7c-.827 0-1.5-.673-1.5-1.5S28.673 4 29.5 4s1.5.673 1.5 1.5S30.327 7 29.5 7zm0-2a.5.5 0 1 0 0 1 .5.5 0 0 0 0-1z" opacity="1" data-original="#a4afc1"></path><path fill="#5b91ff" d="m19.371 7.043 9.586 9.586a.999.999 0 0 1 0 1.414l-2.586 2.586a.999.999 0 0 1-1.414 0l-9.586-9.586a.999.999 0 0 1 0-1.414l2.586-2.586a.999.999 0 0 1 1.414 0z" opacity="1" data-original="#2fdf84" class=""></path><path fill="#efefef" d="M17.67 13.34c-.59.72-.92 1.63-.92 2.57 0 1.17-.51 2.28-1.4 3.04l-7.9 6.78c-.43.37-.7.91-.7 1.52 0 1.1.9 2 2 2 .61 0 1.15-.27 1.52-.7l6.78-7.9c.76-.89 1.87-1.4 3.04-1.4.94 0 1.85-.33 2.57-.92z" opacity="1" data-original="#efefef" class=""></path><path fill="#ff5b5b" d="M17.621 11.043a.999.999 0 0 1 0-1.414l2.168-2.168-.418-.418a.999.999 0 0 0-1.414 0l-2.586 2.586a.999.999 0 0 0 0 1.414l9.586 9.586a.999.999 0 0 0 1.414 0l.418-.418z" opacity="1" data-original="#00b871" class=""></path><path fill="#d5dbe1" d="M9 27.25c0-.61.27-1.15.7-1.52l7.9-6.78c.89-.76 1.4-1.87 1.4-3.04 0-.369.065-.728.162-1.078L17.67 13.34c-.59.72-.92 1.63-.92 2.57 0 1.17-.51 2.28-1.4 3.04l-7.9 6.78c-.43.37-.7.91-.7 1.52 0 1.1.9 2 2 2 .419 0 .8-.134 1.121-.354A1.998 1.998 0 0 1 9 27.25z" opacity="1" data-original="#d5dbe1" class=""></path><path d="M25.664 21.671c-.448 0-.896-.17-1.237-.511l-9.586-9.586a1.753 1.753 0 0 1 0-2.475l2.586-2.586c.662-.661 1.815-.66 2.475 0l9.586 9.586c.331.33.513.77.513 1.237s-.182.907-.513 1.237l-2.586 2.586c-.341.341-.79.512-1.238.512zm-7-14.171a.252.252 0 0 0-.177.073l-2.586 2.586a.252.252 0 0 0 0 .354l9.585 9.585a.25.25 0 0 0 .354 0l2.586-2.586c.063-.064.073-.138.073-.177s-.009-.113-.073-.176L18.84 7.573a.244.244 0 0 0-.176-.073z" fill="#000000" opacity="1" data-original="#000000"></path><path d="m17.88 10.618 1.061-1.06 7.5 7.499-1.061 1.06z" fill="#000000" opacity="1" data-original="#000000"></path><path d="m23.38 19.056 4-4 1.06 1.061-4 4zM15.88 11.556l4-4 1.06 1.061-3.999 4zM8.75 30a2.751 2.751 0 0 1-1.789-4.838l7.901-6.781A3.245 3.245 0 0 0 16 15.91c0-1.106.387-2.188 1.09-3.045l1.16.95a3.321 3.321 0 0 0-.75 2.095 4.738 4.738 0 0 1-1.663 3.61l-7.899 6.779a1.252 1.252 0 1 0 1.764 1.762l6.779-7.899A4.737 4.737 0 0 1 20.09 18.5c.76 0 1.504-.267 2.095-.75l.95 1.16A4.817 4.817 0 0 1 20.09 20c-.953 0-1.853.415-2.47 1.137l-6.781 7.901A2.752 2.752 0 0 1 8.75 30z" fill="#000000" opacity="1" data-original="#000000"></path></g></svg>