<svg xmlns="http://www.w3.org/2000/svg" version="1.1" xmlns:xlink="http://www.w3.org/1999/xlink" width="512" height="512" x="0" y="0" viewBox="0 0 36 36" style="enable-background:new 0 0 512 512" xml:space="preserve" class=""><g><path fill="#efefef" d="M31.833 8.377c0 6.917 3.583 11.667 3.583 15S33.5 33.71 18.167 33.71.583 24.293.583 20.627c0-17.167 31.25-24.5 31.25-12.25z" opacity="1" data-original="#efefef" class=""></path><path fill="#a4afc1" d="M12.5 14c-.827 0-1.5-.673-1.5-1.5s.673-1.5 1.5-1.5 1.5.673 1.5 1.5-.673 1.5-1.5 1.5zm0-2a.5.5 0 1 0 .002 1.002A.5.5 0 0 0 12.5 12z" opacity="1" data-original="#a4afc1"></path><path fill="#efefef" d="M27.5 27.25h-19a1.75 1.75 0 0 1 0-3.5h19a1.75 1.75 0 0 1 0 3.5z" opacity="1" data-original="#efefef" class=""></path><path fill="#5b91ff" d="M24.25 17.25c-.55 0-1-.45-1-1v-9.5h1c1.1 0 2 .9 2 2v8.5z" opacity="1" data-original="#2fdf84" class=""></path><path fill="#ff5b5b" d="M25.5 16.25V7.203a1.977 1.977 0 0 0-1.25-.453h-1v9.5c0 .55.45 1 1 1h2v-.051a.99.99 0 0 1-.75-.949z" opacity="1" data-original="#00b871" class=""></path><path fill="#d5dbe1" d="M9 25.5c0-.966.784-1.75 1.75-1.75H8.5a1.75 1.75 0 0 0 0 3.5h2.25A1.75 1.75 0 0 1 9 25.5z" opacity="1" data-original="#d5dbe1" class=""></path><path d="M27.5 28h-19C7.121 28 6 26.878 6 25.5S7.121 23 8.5 23h19c1.379 0 2.5 1.122 2.5 2.5S28.879 28 27.5 28zm-19-3.5a1.001 1.001 0 0 0 0 2h19a1.001 1.001 0 0 0 0-2z" fill="#000000" opacity="1" data-original="#000000"></path><path d="M29 30h-1a2.503 2.503 0 0 1-2.5-2.5v-.75H27v.75c0 .551.448 1 1 1h1zM27 23.5h-1.5V18h-1.25c-.965 0-1.75-.785-1.75-1.75v-9.5a.75.75 0 0 1 .75-.75h1A2.752 2.752 0 0 1 27 8.75zm-3-16v8.75c0 .138.112.25.25.25h1.25V8.75c0-.689-.561-1.25-1.25-1.25z" fill="#000000" opacity="1" data-original="#000000"></path></g></svg>