<svg xmlns="http://www.w3.org/2000/svg" version="1.1" xmlns:xlink="http://www.w3.org/1999/xlink" width="512" height="512" x="0" y="0" viewBox="0 0 36 36" style="enable-background:new 0 0 512 512" xml:space="preserve" class=""><g><path fill="#efefef" d="M27.623 4.167c-6.917 0-11.667-3.583-15-3.583S2.29 2.5 2.29 17.833s9.417 17.583 13.083 17.583c17.167.001 24.5-31.249 12.25-31.249z" opacity="1" data-original="#efefef" class=""></path><path fill="#a4afc1" d="M6.5 11C5.673 11 5 10.327 5 9.5S5.673 8 6.5 8 8 8.673 8 9.5 7.327 11 6.5 11zm0-2a.5.5 0 1 0 0 1 .5.5 0 0 0 0-1z" opacity="1" data-original="#a4afc1"></path><path fill="#efefef" d="m18.422 11.078-5.439 5.439a3.622 3.622 0 0 0-1.061 2.561c0 .96-.382 1.882-1.061 2.561l-3.525 3.525a2 2 0 0 0 0 2.828l.672.672a2 2 0 0 0 2.828 0l3.525-3.525a3.622 3.622 0 0 1 2.561-1.061c.96 0 1.882-.382 2.561-1.061l5.439-5.439z" opacity="1" data-original="#efefef" class=""></path><path fill="#ff5b5b" d="m18.64 9.89 7.47 7.47c-.61.26-1.26.39-1.93.39-1.23 0-2.42-.49-3.29-1.36l-1.28-1.28a4.64 4.64 0 0 1-1.36-3.28v-.01c0-.67.13-1.32.39-1.93zM17.255 17.005l-2.25 2.25a.87.87 0 0 0 0 1.231l.51.51a.87.87 0 0 0 1.231 0l2.25-2.25a.87.87 0 0 0 0-1.231l-.51-.51a.87.87 0 0 0-1.231 0z" opacity="1" data-original="#2fdf84" class=""></path><path fill="#d5dbe1" d="m10.257 28.664-.672-.672a2 2 0 0 1 0-2.828l3.525-3.525a3.622 3.622 0 0 0 1.061-2.561c0-.96.382-1.882 1.061-2.561l4.314-4.314-1.125-1.125-5.439 5.439a3.622 3.622 0 0 0-1.061 2.561c0 .96-.382 1.882-1.061 2.561l-3.525 3.525a2 2 0 0 0 0 2.828l.672.672a1.998 1.998 0 0 0 2.539.236 2.002 2.002 0 0 1-.289-.236z" opacity="1" data-original="#d5dbe1"></path><path fill="#5b91ff" d="m23.14 16.39-1.28-1.28a4.64 4.64 0 0 1-1.36-3.28v-.01c0-.022.006-.042.006-.064L18.64 9.89c-.26.61-.39 1.26-.39 1.93v.01c0 1.23.49 2.41 1.36 3.28l1.28 1.28c.87.87 2.06 1.36 3.29 1.36a4.95 4.95 0 0 0 1.149-.148 4.638 4.638 0 0 1-2.189-1.212zM17.255 19.255l1.74-1.74-.51-.51a.87.87 0 0 0-1.231 0l-2.25 2.25a.87.87 0 0 0 0 1.231l.51.51a.87.87 0 0 0 1.231 0l.51-.51a.87.87 0 0 1 0-1.231z" opacity="1" data-original="#00b871" class=""></path><path d="M24.177 18.502a5.357 5.357 0 0 1-3.815-1.581l-1.281-1.281a5.434 5.434 0 0 1-1.581-3.815c0-1.541.598-2.984 1.684-4.07l2.066-2.066 1.061 1.061-2.066 2.066A4.222 4.222 0 0 0 19 11.821c0 1.03.416 2.034 1.141 2.759l1.281 1.281a3.87 3.87 0 0 0 2.755 1.141h.005a4.218 4.218 0 0 0 3-1.245l2.068-2.068 1.061 1.061-2.068 2.068a5.71 5.71 0 0 1-4.059 1.684h-.007z" fill="#000000" opacity="1" data-original="#000000" class=""></path><path d="m19.437 11.501 3.81-3.81 1.06 1.06-3.81 3.81z" fill="#000000" opacity="1" data-original="#000000" class=""></path><path d="m18.466 10.781 1.06-1.06 6.999 6.998-1.06 1.06z" fill="#000000" opacity="1" data-original="#000000" class=""></path><path d="m21.436 13.501 3.81-3.81 1.06 1.06-3.81 3.81zM23.436 15.501l3.81-3.81 1.06 1.06-3.81 3.81zM9.422 29.999a2.741 2.741 0 0 1-1.945-.804l-.671-.671a2.753 2.753 0 0 1 0-3.889l3.525-3.525a2.852 2.852 0 0 0 .841-2.03c0-1.167.455-2.266 1.281-3.091l5.439-5.439 1.061 1.061-5.439 5.439a2.855 2.855 0 0 0-.841 2.031 4.347 4.347 0 0 1-1.28 3.091l-3.525 3.525a1.252 1.252 0 0 0 0 1.768l.671.671c.486.486 1.28.487 1.768 0l3.525-3.525a4.34 4.34 0 0 1 3.091-1.28c.767 0 1.488-.299 2.031-.841l5.439-5.439 1.061 1.061-5.439 5.439a4.344 4.344 0 0 1-3.091 1.281c-.767 0-1.488.299-2.03.841l-3.525 3.525a2.766 2.766 0 0 1-1.947.801z" fill="#000000" opacity="1" data-original="#000000" class=""></path><path d="M16.13 22c-.433 0-.839-.168-1.146-.475l-.51-.51c-.306-.306-.474-.712-.474-1.145s.168-.839.475-1.146l2.25-2.25c.612-.612 1.679-.612 2.291 0l.51.51c.306.307.474.713.474 1.146s-.168.839-.475 1.146l-2.25 2.25A1.607 1.607 0 0 1 16.13 22zm1.74-4.5a.12.12 0 0 0-.085.035l-2.25 2.25a.12.12 0 0 0 0 .17l.51.51a.12.12 0 0 0 .17 0l2.25-2.25a.12.12 0 0 0 0-.17l-.51-.51a.12.12 0 0 0-.085-.035z" fill="#000000" opacity="1" data-original="#000000" class=""></path></g></svg>