<svg xmlns="http://www.w3.org/2000/svg" version="1.1" xmlns:xlink="http://www.w3.org/1999/xlink" width="512" height="512" x="0" y="0" viewBox="0 0 36 36" style="enable-background:new 0 0 512 512" xml:space="preserve" class=""><g><path fill="#efefef" d="M27.417 4.414c-6.915.129-11.732-3.365-15.064-3.302-3.333.062-10.296 2.109-10.009 17.44s9.744 17.404 13.41 17.336c17.163-.321 23.911-31.703 11.663-31.474z" opacity="1" data-original="#efefef"></path><g fill="#a4afc1"><path d="m5.688 3.568 1.414-1.414.707.707-1.414 1.414zM1.623 7.633l1.414-1.414.707.707L2.33 8.34zM1.622 2.683l.707-.707L3.743 3.39l-.707.707z" fill="#a4afc1" opacity="1" data-original="#a4afc1" class=""></path></g><path fill="#f3f3f1" d="M29.25 17.75a.484.484 0 0 1-.489.489H26.25v9.543c0 .807-.595 1.467-1.402 1.467h-13.63c-.807 0-1.467-.66-1.467-1.467V18.25H7.239a.484.484 0 0 1-.489-.489c0-.137.059-.264.147-.352L18 6.75l4.25 4.324V7.75h4v7.159l2.853 2.489a.503.503 0 0 1 .147.352z" opacity="1" data-original="#f3f3f1" class=""></path><path fill="#ff5b5b" d="M18.831 18.992c.88-.466 2.02-.24 2.59.514l.906 1.199c.534.566 1.175.566 1.923 0 0 1.406-1.291 2.545-2.885 2.545-1.211 0-2.351-.503-3.077-1.357a.39.39 0 0 0-.577 0c-.726.855-1.866 1.357-3.077 1.357-1.593 0-2.885-1.14-2.885-2.545.748.566 1.389.566 1.923 0l.906-1.199c.569-.754 1.709-.98 2.59-.514a1.802 1.802 0 0 0 1.663 0z" opacity="1" data-original="#2fdf84" class=""></path><path fill="#d5dbe1" d="M13.22 29.25h-2c-.809 0-1.47-.662-1.47-1.47v-9.53h1a1 1 0 0 1 1 1v8.53c0 .81.66 1.47 1.47 1.47zM18 6.75l.97.99L8.9 17.41a.49.49 0 0 0-.15.35c0 .27.22.49.49.49h-2a.49.49 0 0 1-.49-.49c0-.14.06-.26.15-.35z" opacity="1" data-original="#d5dbe1" class=""></path><path fill="#5b91ff" d="m21.42 19.51.25.33c-.51-.15-1.09-.11-1.59.15-.26.13-.54.2-.83.2s-.57-.07-.83-.2c-.88-.46-2.02-.24-2.59.52l-.91 1.19c-.26.28-.56.43-.88.43s-.66-.15-1.04-.43c0 .48.15.93.42 1.31-.31-.13-.59-.3-.83-.51-.52-.46-.84-1.1-.84-1.8.37.28.72.43 1.04.43s.61-.15.88-.43l.91-1.19c.57-.76 1.71-.98 2.59-.52a1.815 1.815 0 0 0 1.66 0c.88-.46 2.02-.24 2.59.52z" opacity="1" data-original="#00b871" class=""></path><path d="M21.365 24c-1.274 0-2.503-.487-3.365-1.32-.862.833-2.09 1.32-3.365 1.32C12.63 24 11 22.521 11 20.705c0-.285.161-.545.416-.671a.748.748 0 0 1 .787.073c.587.443.766.252.925.083l.854-1.136c.786-1.041 2.341-1.358 3.539-.724.292.154.669.154.961 0 1.199-.635 2.752-.317 3.539.724l.906 1.199c.105.106.287.295.872-.146a.75.75 0 0 1 1.201.598C25 22.521 23.37 24 21.365 24zM18 21.015c.335 0 .648.143.86.392.582.685 1.519 1.093 2.505 1.093.651 0 1.235-.247 1.626-.634-.584-.074-.999-.423-1.21-.647l-.959-1.261c-.348-.461-1.083-.597-1.64-.303a2.554 2.554 0 0 1-2.365 0c-.555-.293-1.292-.158-1.64.303l-.907 1.199c-.241.259-.673.627-1.267.705.392.39.978.638 1.631.638.987 0 1.923-.409 2.505-1.093.213-.249.526-.392.861-.392z" fill="#000000" opacity="1" data-original="#000000"></path><path d="M24.848 30h-13.63A2.22 2.22 0 0 1 9 27.783V19H7.239a1.24 1.24 0 0 1-.871-2.123L17.48 6.209a.75.75 0 0 1 1.054.015L21.5 9.241V7.75a.75.75 0 0 1 .75-.75h4a.75.75 0 0 1 .75.75v6.818l2.596 2.265c.27.266.404.588.404.917a1.24 1.24 0 0 1-1.239 1.239H27v8.793C27 29.026 26.055 30 24.848 30zM7.885 17.5H9.75a.75.75 0 0 1 .75.75v9.533c0 .396.322.717.717.717h13.63c.372 0 .652-.309.652-.717V18.24a.75.75 0 0 1 .75-.75h1.819l-2.312-2.016a.75.75 0 0 1-.257-.565V8.5H23v2.574a.749.749 0 0 1-1.285.526l-3.73-3.795z" fill="#000000" opacity="1" data-original="#000000"></path></g></svg>