<svg xmlns="http://www.w3.org/2000/svg" version="1.1" xmlns:xlink="http://www.w3.org/1999/xlink" width="512" height="512" x="0" y="0" viewBox="0 0 36 36" style="enable-background:new 0 0 512 512" xml:space="preserve" class=""><g><path fill="#efefef" d="M4.167 8.377c0 6.917-3.583 11.667-3.583 15S2.5 33.71 17.833 33.71s17.583-9.417 17.583-13.083C35.417 3.46 4.167-3.873 4.167 8.377z" opacity="1" data-original="#efefef" class=""></path><path fill="#a4afc1" d="M11.375 5.25h1v2h-1zM8.125 8.25h2v1h-2z" opacity="1" data-original="#a4afc1" class=""></path><path fill="#efefef" d="M26.2 6.75a2 2 0 0 0-1.974 1.678L22.5 19l2.5.25h-9.808a2 2 0 0 0-1.897 1.368l-.545 1.632h10.297c.982 0 1.818-.712 1.974-1.682L27.25 6.75z" opacity="1" data-original="#efefef" class=""></path><path fill="#ff5b5b" d="M16.75 29v-1.25a1 1 0 0 1 1-1h1.5a1 1 0 0 1 1 1V29z" opacity="1" data-original="#2fdf84" class=""></path><path fill="#5b91ff" d="M19.625 26.826a.996.996 0 0 0-.375-.076h-1.5a1 1 0 0 0-1 1V29H19v-1.25c0-.419.259-.776.625-.924z" opacity="1" data-original="#00b871" class=""></path><path fill="#d5dbe1" d="m25.234 19.25.032-.198L24.75 19l1.726-10.572c.08-.493.338-.917.7-1.217l.074-.461H26.2a2 2 0 0 0-1.974 1.678L22.5 19l2.5.25zM17.442 19.25h-2.25a2 2 0 0 0-1.897 1.368l-.545 1.632H15l.544-1.632a2 2 0 0 1 1.898-1.368z" opacity="1" data-original="#d5dbe1"></path><path d="M23.047 23H12.75a.751.751 0 0 1-.712-.988l.544-1.632a2.747 2.747 0 0 1 2.609-1.88h6.63l1.665-10.193A2.738 2.738 0 0 1 26.2 6h1.05a.747.747 0 0 1 .74.87l-2.229 13.818A2.738 2.738 0 0 1 23.047 23zm-9.257-1.5h9.257c.617 0 1.136-.442 1.234-1.051l.073-.449h-9.162c-.539 0-1.016.344-1.186.855zm9.552-3h1.254l1.773-11H26.2c-.616 0-1.135.441-1.233 1.048z" fill="#000000" opacity="1" data-original="#000000"></path><path d="M10.807 27H8.5v-1.5h2.307c.11 0 .207-.072.238-.178l.986-3.287 1.438.431-.986 3.287A1.74 1.74 0 0 1 10.807 27zM17.75 22.5h1.5v4.25h-1.5z" fill="#000000" opacity="1" data-original="#000000"></path><path d="M21 29h-1.5v-1.25a.25.25 0 0 0-.25-.25h-1.5a.25.25 0 0 0-.25.25V29H16v-1.25c0-.965.785-1.75 1.75-1.75h1.5c.965 0 1.75.785 1.75 1.75z" fill="#000000" opacity="1" data-original="#000000"></path><path d="M13 28.5h11V30H13zM18.215 19.726l-1.43-.452 1.059-3.352A2.738 2.738 0 0 1 20.466 14H26v1.5h-5.534c-.548 0-1.027.351-1.192.874z" fill="#000000" opacity="1" data-original="#000000"></path></g></svg>